<svg xmlns="http://www.w3.org/2000/svg" viewBox="0 0 55.43 55.43"><title>icon-arrow--down</title><g id="Layer_2" data-name="Layer 2"><g id="Guarnateed_Results" data-name="Guarnateed Results"><path d="M27.72,0A27.72,27.72,0,1,0,55.43,27.72,27.72,27.72,0,0,0,27.72,0ZM48.21,31.14,28.5,50.84a.48.48,0,0,1-.68,0L8.13,31.14A.48.48,0,0,1,8,30.8V28a.48.48,0,0,1,.82-.34L26.68,45.51V6.2a.48.48,0,0,1,.48-.48h2a.48.48,0,0,1,.48.48V45.53l17.9-17.9a.48.48,0,0,1,.82.34V30.8A.48.48,0,0,1,48.21,31.14Z" /></g></g></svg>