<?xml version="1.0" encoding="utf-8"?>
<!-- Generated by IcoMoon.io -->
<!DOCTYPE svg PUBLIC "-//W3C//DTD SVG 1.1//EN" "http://www.w3.org/Graphics/SVG/1.1/DTD/svg11.dtd">
<svg version="1.1" xmlns="http://www.w3.org/2000/svg" xmlns:xlink="http://www.w3.org/1999/xlink" width="1149" height="1024" viewBox="0 0 1149 1024">
<g id="icomoon-ignore">
</g>
<path d="M1144.347 502.787l-499.825-502.129c-1.202-0.417-2.589-0.658-4.031-0.658s-2.828 0.241-4.12 0.685l-71.314-0.027c-6.263 0.832-11.045 6.14-11.045 12.564 0 3.12 1.128 5.977 2.998 8.184l452.591 453.74h-996.195c-0.016 0-0.034 0-0.053 0-6.592 0-12.007 5.034-12.612 11.466l-0.004 50.724c0 6.997 5.672 12.669 12.669 12.669 0 0 0 0 0 0h995.043l-452.606 452.606c-1.856 2.189-2.983 5.046-2.983 8.166 0 6.424 4.782 11.732 10.98 12.557l71.468 0.007c1.202 0.417 2.589 0.658 4.031 0.658s2.828-0.241 4.12-0.685l500.887-503.253c2.107-2.256 3.402-5.296 3.402-8.638s-1.294-6.381-3.408-8.645z"></path>
</svg>
