<svg xmlns="http://www.w3.org/2000/svg" viewBox="0 0 35.51 35.51"><defs><style>.cls-1{fill:#7d9fd9;}.cls-2{fill:#fff;}</style></defs><title>instagram</title><g id="Layer_2" data-name="Layer 2"><g id="Homepage"><circle class="cls-1" cx="17.75" cy="17.75" r="17.75"/><path class="cls-2" fill="#fff" d="M25.93,6.57H9.63A2.6,2.6,0,0,0,7,9.16V25.67a2.6,2.6,0,0,0,2.61,2.58h16.3a2.6,2.6,0,0,0,2.61-2.58V9.16A2.6,2.6,0,0,0,25.93,6.57ZM22.2,17.74a4.5,4.5,0,1,1-4.5-4.5A4.5,4.5,0,0,1,22.2,17.74Z"/><rect class="cls-1" x="21.7" y="9.14" width="4.2" height="4.2"/><path class="cls-1" d="M25.93,25.86H9.63a.2.2,0,0,1-.21-.18V17.44h1.41c0,.1,0,.2,0,.3a6.89,6.89,0,1,0,13.79,0c0-.1,0-.2,0-.3h1.56v8.23A.2.2,0,0,1,25.93,25.86Z"/></g></g></svg>