<?xml version="1.0" encoding="utf-8"?>
<!-- Generated by IcoMoon.io -->
<!DOCTYPE svg PUBLIC "-//W3C//DTD SVG 1.1//EN" "http://www.w3.org/Graphics/SVG/1.1/DTD/svg11.dtd">
<svg version="1.1" xmlns="http://www.w3.org/2000/svg" xmlns:xlink="http://www.w3.org/1999/xlink" width="1024" height="1024" viewBox="0 0 1024 1024">
<g id="icomoon-ignore">
</g>
<path fill="#fff" d="M512 1018.86c-279.931 0-506.86-226.929-506.86-506.86s226.929-506.86 506.86-506.86c279.931 0 506.86 226.929 506.86 506.86-0.359 279.787-227.074 506.501-506.826 506.86z"></path>
<path fill="#fff" d="M512 10.28c277.092 0 501.72 224.628 501.72 501.72s-224.628 501.72-501.72 501.72c-277.092 0-501.72-224.628-501.72-501.72s224.628-501.72 501.72-501.72zM512 0c-282.77 0-512 229.23-512 512s229.23 512 512 512c282.77 0 512-229.23 512-512-0.359-282.625-229.375-511.641-511.966-512h-0.034z"></path>
<path fill="#010101" d="M512 953.756c-244.025 0-441.846-197.821-441.846-441.846s197.821-441.846 441.846-441.846c244.025 0 441.846 197.821 441.846 441.846s-197.821 441.846-441.846 441.846z"></path>
<path fill="#7f9fd2" d="M512 92.878c231.475 0 419.122 187.647 419.122 419.122s-187.647 419.122-419.122 419.122c-231.475 0-419.122-187.647-419.122-419.122s187.647-419.122 419.122-419.122zM512 47.791c-256.375 0-464.209 207.833-464.209 464.209s207.833 464.209 464.209 464.209c256.375 0 464.209-207.833 464.209-464.209-0.308-256.251-207.957-463.901-464.179-464.208h-0.030z"></path>
<path fill="#7f9fd2" d="M255.549 498.384h94.14v134.808h-94.14v-134.808z"></path>
<path fill="#7f9fd2" d="M393.694 434.091h94.14v199.101h-94.14v-199.101z"></path>
<path fill="#7f9fd2" d="M534.904 370.88h94.14v262.312h-94.14v-262.312z"></path>
<path fill="#7f9fd2" d="M674.671 307.308h94.14v325.884h-94.14v-325.884z"></path>
<path fill="#7f9fd2" d="M736.8 698.838v-21.1h7.484v21.1h22.363v6.943h-22.273v21.1h-7.665v-21.1h-22.182v-6.943h22.363z"></path>
<path fill="#7f9fd2" d="M255.459 697.846v-9.017h54.104v9.017h-54.104z"></path>
</svg>
