<svg xmlns="http://www.w3.org/2000/svg" viewBox="0 0 102.97 102.97"><defs><style>.cls-1{fill:#fff;}.cls-2{fill:#7d9fd9;}</style></defs><title>icon-meter</title><g id="Layer_2" data-name="Layer 2"><g id="Homepage"><path d="M51.48,100.47a49,49,0,1,1,49-49A49,49,0,0,1,51.48,100.47Z"/><path class="cls-1" fill="#fff" d="M51.48,5A46.48,46.48,0,1,1,5,51.48,46.48,46.48,0,0,1,51.48,5m0-5A51.48,51.48,0,1,0,103,51.48,51.54,51.54,0,0,0,51.48,0Z"/><path class="cls-2" fill="#7d9fd9" d="M72.05,43.7,59.29,50.64a2.67,2.67,0,0,1-3.61-1.07l-1.37-2.51a2.67,2.67,0,0,1,1.07-3.61l12.72-6.92a22,22,0,1,0,3.94,7.16Z"/><path class="cls-2" fill="#7d9fd9" d="M14.26,61.5a38.35,38.35,0,0,1-1.2-6.6l8-.74A30.35,30.35,0,0,0,22,59.38Zm74.37-.38-7.74-2a30.86,30.86,0,0,0,.9-5.24v-.12l8,.64v.16A38.86,38.86,0,0,1,88.64,61.12ZM21,48.78l-4-.26-4-.37a38.89,38.89,0,0,1,1.11-6.57l7.74,2A30.83,30.83,0,0,0,21,48.78Zm60.76-.37a30.35,30.35,0,0,0-1-5.22l7.71-2.13a38.38,38.38,0,0,1,1.21,6.6ZM23.67,38.6,16.4,35.26a38.53,38.53,0,0,1,3.32-5.83L26.3,34A30.51,30.51,0,0,0,23.67,38.6ZM79,38.22a30.72,30.72,0,0,0-2.7-4.58L82.77,29a38.75,38.75,0,0,1,3.4,5.78ZM29.69,29.89,24,24.27a38.89,38.89,0,0,1,5.11-4.34l4.64,6.52A30.87,30.87,0,0,0,29.69,29.89Zm43.11-.3a30.7,30.7,0,0,0-4.1-3.39l4.55-6.58a38.68,38.68,0,0,1,5.17,4.28ZM38.33,23.75l-3.44-7.22a38.5,38.5,0,0,1,6.29-2.34L43.3,21.9A30.46,30.46,0,0,0,38.33,23.75Zm25.76-.18a30.39,30.39,0,0,0-5-1.78l2-7.74a38.41,38.41,0,0,1,6.32,2.25ZM48.53,20.95l-.74-8a38.83,38.83,0,0,1,6.71,0l-.65,8A30.83,30.83,0,0,0,48.53,20.95Z"/></g></g></svg>