<svg xmlns="http://www.w3.org/2000/svg" viewBox="0 0 35.51 35.51"><defs><style>.cls-1{fill:#7d9fd9;}.cls-2{fill:#fff;}</style></defs><title>twitter</title><g id="Layer_2" data-name="Layer 2"><g id="Homepage"><circle class="cls-1" cx="17.75" cy="17.75" r="17.75"/><path class="cls-2" fill="#fff" d="M27.55,13.83c0,.2,0,.41,0,.61A13.38,13.38,0,0,1,7,25.73a9.7,9.7,0,0,0,1.12.07,9.43,9.43,0,0,0,5.84-2,4.71,4.71,0,0,1-4.39-3.27,4.69,4.69,0,0,0,.88.08c.43,0,.2-.06.6-.17C8.87,20,6.61,18.09,6.61,15.81v-.06c0,.35,2,.57,2.77.59a4.45,4.45,0,0,1-1.77-3.92A4.83,4.83,0,0,1,8.41,10,13.52,13.52,0,0,0,18.18,15a4.72,4.72,0,0,1-.08-1.07,4.73,4.73,0,0,1,8.17-3.23,9.4,9.4,0,0,0,3-1.14,4.72,4.72,0,0,1-2.07,2.61,9.45,9.45,0,0,0,2.7-.74A9.58,9.58,0,0,1,27.55,13.83Z"/></g></g></svg>