<svg xmlns="http://www.w3.org/2000/svg" viewBox="0 0 35.51 35.51"><defs><style>.cls-1{fill:#7d9fd9;}.cls-2{fill:#fff;}</style></defs><title>youtube</title><g id="Layer_2" data-name="Layer 2"><g id="Homepage"><circle class="cls-1" cx="17.75" cy="17.75" r="17.75"/><g id="Lozenge"><path class="cls-2" fill="#fff" d="M28.83,13.43a4.91,4.91,0,0,0-.9-2.25,3.24,3.24,0,0,0-2.27-1C22.48,10,17.72,10,17.72,10h0s-4.76,0-7.94.23a3.25,3.25,0,0,0-2.27,1,4.91,4.91,0,0,0-.9,2.25,34.36,34.36,0,0,0-.23,3.67v1.72a34.36,34.36,0,0,0,.23,3.67,4.91,4.91,0,0,0,.9,2.25,3.85,3.85,0,0,0,2.5,1c1.81.17,7.71.23,7.71.23s4.77,0,7.94-.24a3.24,3.24,0,0,0,2.27-1,4.91,4.91,0,0,0,.9-2.25,34.36,34.36,0,0,0,.23-3.67V17.1A34.36,34.36,0,0,0,28.83,13.43ZM15.22,21.75V13.69l7.76,4Z"/></g></g></g></svg>